<?xml version="1.0" encoding="utf-8"?>
<!-- Generator: Adobe Illustrator 16.0.0, SVG Export Plug-In . SVG Version: 6.00 Build 0)  -->
<!DOCTYPE svg PUBLIC "-//W3C//DTD SVG 1.1//EN" "http://www.w3.org/Graphics/SVG/1.1/DTD/svg11.dtd">
<svg version="1.1" id="Layer_1" xmlns="http://www.w3.org/2000/svg" xmlns:xlink="http://www.w3.org/1999/xlink" x="0px" y="0px"
	 width="283.464px" height="283.465px" viewBox="37.516 11.444 283.464 283.465"
	 enable-background="new 37.516 11.444 283.464 283.465" xml:space="preserve">
<g>
	<path fill="#FFFFFF" d="M184.025,214.9c-4.629,5.908-9.478,9.768-14.605,11.51c-5.146,1.765-12.98,2.646-23.565,2.646h-13.091
		c-9.91,0-16.371-0.817-19.367-2.47c-3.009-1.653-4.849-3.944-5.533-6.926c-0.675-2.953-1.017-10.334-1.017-22.15v-85.447
		c0-13.558,0.452-22.132,1.335-25.748c0.881-3.613,2.657-6.084,5.278-7.406c2.625-1.321,8.19-1.983,16.679-1.983h7.617v-5.532
		c0,0-25.494,0-44.928,0c-14.451-0.947-23.975-3.505-29.408-5.491c0.131-0.527,0.353-1.057,0.353-1.651
		c0-3.9-3.34-7.055-7.472-7.055c-4.103,0-7.44,3.153-7.44,7.055c0,3.926,3.34,7.075,7.44,7.075c2.06,0,3.913-0.794,5.246-2.05
		c7.198,3.328,19.949,11.376,19.949,26.299c0,1.148,0.067,2.072,0.198,2.845c0.144,3.794,0.21,8.311,0.21,13.646v80.023
		c0,13.664-0.408,22.351-1.202,26.078c-0.803,3.726-2.634,6.48-5.478,8.244c-2.821,1.766-7.947,2.646-15.333,2.646h-13.38v5.555
		h154.762l1.236-48.035h-5.84C192.855,199.514,188.656,208.951,184.025,214.9"/>
	<path fill="#FFFFFF" d="M277.792,88.188c0.794-3.728,2.646-6.48,5.469-8.244c2.867-1.763,7.955-2.645,15.342-2.645h13.383v-5.558
		H157.219l-1.245,48.038h5.854c3.811-12.965,8.034-22.423,12.64-28.331c4.63-5.908,9.505-9.764,14.606-11.506
		c5.128-1.785,12.974-2.645,23.6-2.645h13.049c9.922,0,16.379,0.813,19.379,2.469c3.02,1.632,4.851,3.946,5.532,6.899
		c0.663,2.977,1.015,10.36,1.015,22.152v85.447c0,13.581-0.438,22.155-1.321,25.769c-0.929,3.617-2.646,6.064-5.291,7.406
		c-2.622,1.325-8.2,1.983-16.667,1.983h-7.626v5.536h44.951c14.416,0.925,23.962,3.482,29.381,5.467
		c-0.131,0.553-0.353,1.081-0.353,1.652c0,3.9,3.353,7.078,7.449,7.078c4.146,0,7.495-3.178,7.495-7.078
		c0-3.877-3.35-7.055-7.495-7.055c-2.024,0-3.878,0.793-5.225,2.051c-7.162-3.352-19.948-11.373-19.948-26.301
		c0-1.168-0.063-2.094-0.22-2.865c-0.13-3.77-0.178-8.289-0.178-13.645V114.22C276.602,100.6,276.999,91.914,277.792,88.188"/>
</g>
</svg>
