<?xml version="1.0" encoding="utf-8"?>
<!-- Generator: Adobe Illustrator 16.0.3, SVG Export Plug-In . SVG Version: 6.00 Build 0)  -->
<!DOCTYPE svg PUBLIC "-//W3C//DTD SVG 1.1//EN" "http://www.w3.org/Graphics/SVG/1.1/DTD/svg11.dtd">
<svg version="1.1" id="Layer_1" xmlns="http://www.w3.org/2000/svg" xmlns:xlink="http://www.w3.org/1999/xlink" x="0px" y="0px"
	 width="433.994px" height="313.826px" viewBox="0 0 433.994 313.826" enable-background="new 0 0 433.994 313.826"
	 xml:space="preserve">
<g>
	<path fill="#E75757" d="M221.775,218.636c-4.629,5.908-9.478,9.767-14.606,11.509c-5.145,1.765-12.98,2.646-23.565,2.646h-13.091
		c-9.91,0-16.371-0.818-19.367-2.47c-3.009-1.653-4.849-3.944-5.533-6.925c-0.675-2.954-1.017-10.335-1.017-22.151v-85.447
		c0-13.557,0.452-22.132,1.335-25.748c0.881-3.613,2.657-6.084,5.278-7.406c2.625-1.321,8.191-1.984,16.679-1.984h7.617v-5.532
		c0,0-25.494,0-44.928,0c-14.451-0.947-23.974-3.505-29.408-5.491c0.131-0.527,0.353-1.057,0.353-1.651
		c0-3.901-3.34-7.055-7.472-7.055c-4.102,0-7.44,3.153-7.44,7.055c0,3.925,3.339,7.075,7.44,7.075c2.06,0,3.913-0.794,5.246-2.05
		c7.198,3.328,19.949,11.376,19.949,26.299c0,1.148,0.068,2.072,0.199,2.845c0.143,3.794,0.21,8.31,0.21,13.645v80.024
		c0,13.664-0.409,22.35-1.203,26.077c-0.802,3.726-2.633,6.481-5.477,8.245c-2.821,1.765-7.947,2.646-15.333,2.646h-13.38v5.555
		h154.762l1.236-48.036h-5.84C230.604,203.249,226.405,212.686,221.775,218.636"/>
	<path fill="#E75757" d="M315.541,91.924c0.794-3.727,2.646-6.48,5.469-8.244c2.867-1.763,7.955-2.645,15.342-2.645h13.382v-5.557
		H194.968l-1.245,48.038h5.854c3.811-12.965,8.035-22.423,12.64-28.331c4.63-5.908,9.504-9.764,14.606-11.506
		c5.128-1.785,12.974-2.645,23.6-2.645h13.049c9.922,0,16.379,0.814,19.379,2.469c3.019,1.632,4.85,3.946,5.532,6.9
		c0.663,2.976,1.015,10.36,1.015,22.152v85.447c0,13.581-0.439,22.155-1.322,25.769c-0.929,3.617-2.646,6.064-5.291,7.406
		c-2.622,1.325-8.2,1.983-16.667,1.983h-7.626v5.537h44.951c14.416,0.924,23.962,3.482,29.381,5.466
		c-0.131,0.553-0.352,1.081-0.352,1.653c0,3.9,3.352,7.078,7.449,7.078c4.146,0,7.495-3.178,7.495-7.078
		c0-3.878-3.35-7.056-7.495-7.056c-2.025,0-3.878,0.794-5.225,2.051c-7.162-3.351-19.948-11.372-19.948-26.3
		c0-1.169-0.064-2.094-0.22-2.866c-0.13-3.769-0.177-8.288-0.177-13.644v-80.046C314.351,104.335,314.748,95.65,315.541,91.924"/>
</g>
</svg>
